#!OML:ASF X:\für Bonn\!DataBase\2005_08_12_Daniel\c3d\Daniel.ASF
:FULLY-SPECIFIED
:DEGREES
325
root 1.87747 16.8618 -1.06708 173.674 -87.6139 -186.529
lowerback 19.1629 -0.521899 3.66994
upperback 3.61272 -0.227926 -0.70802
thorax -6.82788 -0.286688 -2.78534
lowerneck 1.40702 1.51142 3.30644
upperneck 8.68766 1.9905 -1.96842
head 2.57031 0.983152 -1.16237
rclavicle 5.56597e-015 -1.02374e-014
rhumerus -22.8486 26.332 -99.4849
rradius 56.036
rwrist 16.743
rhand -16.2702 376.571
rfingers 7.12502
rthumb 9.93945 346.826
lclavicle 5.56597e-015 -1.02374e-014
lhumerus -227.358 200.28 -70.654
lradius 83.6944
lwrist -2.87144
lhand 33.3868 7.93977
lfingers 7.12502
lthumb 56.7233 24.754
rfemur 5.19508 21.1804 25.7769
rtibia 32.3752
rfoot 327.449 -21.0601
rtoes -8.30002
lfemur -15.594 -5.44768 -8.16858
ltibia 57.0221
lfoot -6.93028 5.34674
ltoes -8.29155
326
root 1.90189 16.866 -1.07189 176.557 -87.6788 -189.356
lowerback 19.26 -0.428008 3.69908
upperback 3.63987 -0.100006 -0.738222
thorax -6.84071 -0.226282 -2.86643
lowerneck 1.26146 1.41489 3.2247
upperneck 8.74414 1.85825 -1.9497
head 2.60991 0.915438 -1.14434
rclavicle -6.2027e-015 5.26779e-015
rhumerus -23.7065 26.5149 -99.7039
rradius 56.6156
rwrist 15.5349
rhand -15.9753 376.363
rfingers 7.12502
rthumb 10.224 346.632
lclavicle -6.2027e-015 5.26779e-015
lhumerus -227.45 200.598 -70.7975
lradius 84.0942
lwrist -1.90411
lhand 33.1708 8.17477
lfingers 7.12502
lthumb 56.5328 25.1435
rfemur 5.08207 21.6082 25.8196
rtibia 32.4653
rfoot 327.267 -21.4855
rtoes -8.09461
lfemur -16.0124 -5.39488 -8.26935
ltibia 57.2737
lfoot -6.45078 5.47617
ltoes -8.42427
327
root 1.92725 16.8677 -1.07416 178.036 -87.756 -190.747
lowerback 19.3429 -0.349863 3.81598
upperback 3.6582 0.0258204 -0.761602
thorax -6.85486 -0.168503 -2.99002
lowerneck 1.09632 1.31689 3.15007
upperneck 8.80442 1.72387 -1.93131
head 2.65466 0.846912 -1.12784
rclavicle 3.43525e-015 -2.28602e-015
rhumerus -24.5954 26.6519 -99.916
rradius 57.2272
rwrist 14.3283
rhand -15.6696 376.243
rfingers 7.12502
rthumb 10.5189 346.526
lclavicle 3.43525e-015 -2.28602e-015
lhumerus -227.516 200.902 -70.9698
lradius 84.4684
lwrist -1.01552
lhand 33.0504 8.65438
lfingers 7.12502
lthumb 56.4265 25.7084
rfemur 4.92172 22.0127 25.8979
rtibia 32.5568
rfoot 327.05 -21.8521
rtoes -7.99859
lfemur -16.4498 -5.38177 -8.29923
ltibia 57.5266
lfoot -6.05484 5.5417
ltoes -8.27848
328
root 1.95328 16.8691 -1.07398 176.803 -87.8282 -189.436
lowerback 19.4584 -0.30018 4.05701
upperback 3.67275 0.142428 -0.764596
thorax -6.88979 -0.118248 -3.16079
lowerneck 0.950876 1.23172 3.08994
upperneck 8.85736 1.60907 -1.94074
head 2.69482 0.787801 -1.12271
rclavicle -7.07549e-015 9.34288e-015
rhumerus -25.4634 26.7787 -100.121
rradius 57.7962
rwrist 13.29
rhand -15.4478 376.163
rfingers 7.12502
rthumb 10.7328 346.457
lclavicle -7.07549e-015 9.34288e-015
lhumerus -227.578 201.192 -71.1746
lradius 84.876
lwrist -0.192661
lhand 32.9594 9.39203
lfingers 7.12502
lthumb 56.3461 26.5101
rfemur 4.77605 22.4226 26.0864
rtibia 32.6274
rfoot 326.883 -22.2836
rtoes -7.88355
lfemur -16.8602 -5.37705 -8.22303
ltibia 57.7848
lfoot -5.77311 5.59145
ltoes -8.17326
329
root 1.98021 16.8676 -1.07028 173.966 -87.9041 -186.517
lowerback 19.597 -0.26565 4.36069
upperback 3.66751 0.256815 -0.742213
thorax -6.95735 -0.0710876 -3.34016
lowerneck 0.818049 1.15278 2.99984
upperneck 8.92235 1.50372 -1.95613
head 2.73681 0.732084 -1.11432
rclavicle -2.79541e-015 -8.94531e-016
rhumerus -26.3976 26.9276 -100.331
rradius 58.3622
rwrist 12.3198
rhand -15.3951 376.124
rfingers 7.12502
rthumb 10.7837 346.42
lclavicle -2.79541e-015 -8.94531e-016
lhumerus -227.62 201.45 -71.3544
lradius 85.2342
lwrist 0.520485
lhand 32.9143 10.1419
lfingers 7.12502
lthumb 56.3062 27.2917
rfemur 4.62263 22.7824 26.2972
rtibia 32.6754
rfoot 326.727 -22.6415
rtoes -7.72835
lfemur -17.2556 -5.37456 -8.09422
ltibia 58.0323
lfoot -5.56558 5.62364
ltoes -7.86411
330
root 2.00529 16.8666 -1.06554 169.891 -88.0513 -182.393
lowerback 19.7215 -0.274801 4.6907
upperback 3.69999 0.318296 -0.700923
thorax -6.97986 -0.0491384 -3.50065
lowerneck 0.655079 1.08328 2.85063
upperneck 8.96289 1.41209 -1.96451
head 2.77574 0.681661 -1.09301
rclavicle 1.45175e-014 1.68967e-015
rhumerus -27.2283 27.0745 -100.48
rradius 58.8405
rwrist 11.4898
rhand -15.3851 376.173
rfingers 7.12502
rthumb 10.7933 346.47
lclavicle 1.45175e-014 1.68967e-015
lhumerus -227.58 201.691 -71.5734
lradius 85.5695
lwrist 1.19469
lhand 33.0099 10.9773
lfingers 7.12502
lthumb 56.3907 28.0599
rfemur 4.53743 23.0553 26.5392
rtibia 32.6888
rfoot 326.572 -23.0356
rtoes -7.62585
lfemur -17.6085 -5.48128 -7.96144
ltibia 58.2623
lfoot -5.44649 5.68852
ltoes -7.71687
331
root 2.02659 16.8644 -1.06069 163.406 -88.2754 -175.861
lowerback 19.8065 -0.312923 5.05823
upperback 3.73581 0.349574 -0.646803
thorax -6.9795 -0.0416167 -3.66069
lowerneck 0.483775 0.997368 2.77677
upperneck 9.0418 1.30164 -2.0388
head 2.83079 0.622 -1.10709
rclavicle -6.82701e-015 -6.36111e-015
rhumerus -28.0381 27.1427 -100.618
rradius 59.2361
rwrist 10.8402
rhand -15.4871 376.307
rfingers 7.12502
rthumb 10.6949 346.599
lclavicle -6.82701e-015 -6.36111e-015
lhumerus -227.571 201.951 -71.7454
lradius 85.8466
lwrist 1.74486
lhand 33.1041 11.7242
lfingers 7.12502
lthumb 56.474 28.7402
rfemur 4.52615 23.3944 26.8866
rtibia 32.6711
rfoot 326.309 -23.5325
rtoes -7.46516
lfemur -17.943 -5.6753 -7.80392
ltibia 58.4605
lfoot -5.35088 5.75193
ltoes -7.57587
